# xmcd
#
# Track frame offsets: 
#        150
#        22467
#        49455
#        71102
#        97002
#        116172
#        135505
#        167495
#        189505
#        207287
#        225790
#        242365
#
# Disc length: 3453 seconds
#
# Revision: 0
# Processed by: cddbd v1.5.2PL0 Copyright (c) Steve Scherf et al.
# Submitted via: ExactAudioCopy v0.90b4
#
DISCID=a70d7b0c
DTITLE=Lovett, Lyle - Joshua Judges Ruth  DTS
DYEAR=1900
DGENRE=Country
TTITLE0=I've Been To Memphis
TTITLE1=Church
TTITLE2=She's Already Made Up her Mind
TTITLE3=North Dakota
TTITLE4=You've Been So Good Up To Now
TTITLE5=All My Love Is Gone
TTITLE6=Since The Last Time
TTITLE7=Baltimore
TTITLE8=Family Reserve
TTITLE9=She's Leaving Me Because She Really Wants To
TTITLE10=Flyswatter-Ice Water Blues
TTITLE11=She Makes Me Feel Good
EXTD=
EXTT0=
EXTT1=
EXTT2=
EXTT3=
EXTT4=
EXTT5=
EXTT6=
EXTT7=
EXTT8=
EXTT9=
EXTT10=
EXTT11=
PLAYORDER=
